<?xml version="1.0" encoding="UTF-8" standalone="no"?>
<!DOCTYPE svg PUBLIC "-//W3C//DTD SVG 1.1//EN" "http://www.w3.org/Graphics/SVG/1.1/DTD/svg11.dtd">
<svg width="100%" height="100%" viewBox="0 0 2048 2048" version="1.1" xmlns="http://www.w3.org/2000/svg" xmlns:xlink="http://www.w3.org/1999/xlink" xml:space="preserve" xmlns:serif="http://www.serif.com/" style="fill-rule:evenodd;clip-rule:evenodd;stroke-linejoin:round;stroke-miterlimit:2;">
    <rect id="Artboard1" x="0" y="0" width="2048" height="2048" style="fill:none;"/>
    <clipPath id="_clip1">
        <rect id="Artboard11" serif:id="Artboard1" x="0" y="0" width="2048" height="2048"/>
    </clipPath>
    <g clip-path="url(#_clip1)">
        <g transform="matrix(2,0,0,2,0,0)">
            <path d="M0,999.5L0,0C1.496,-1.266 1.81,0 24.5,0L1023.999,0C1025.156,2.148 1023.999,2.338 1023.999,30.5L1023.999,1023.999C1021.851,1025.156 1021.661,1023.999 993.5,1023.999L0,1023.999C-0.929,1022.273 -0,1022.121 0,999.5Z" style="fill:rgb(174,71,75);"/>
        </g>
        <g transform="matrix(2,0,0,2,23.336823,10.209452)">
            <path d="M537.946,548.522C535.517,587.195 532.492,617.518 544.342,606.329C560.757,590.83 556.729,541.515 574.731,528.815C583.333,522.747 601.186,517.55 606.704,536.437C608.517,542.64 616.102,604.586 626.405,592.424C634.295,583.109 633.274,538.253 633.166,533.51C632.698,512.932 629.082,482.185 671.482,477.316C708.373,473.079 704.183,505.911 703.721,509.528C699.882,539.602 688.19,567.322 677.037,621.41C670.989,650.738 664.235,678.468 629.538,677.082C620.581,676.725 603.062,669.729 595.306,644.562C594.143,640.788 589.363,618.273 580.482,621.454C567.839,625.982 565.873,707.344 510.553,701.123C487.391,698.518 489.246,660.068 479.338,609.534C470.703,565.496 455.454,526.179 509.457,513.33C541.538,505.697 538.459,534.495 537.946,548.522Z" style="fill:rgb(144,59,63);"/>
        </g>
        <g transform="matrix(2,0,0,2,72.336823,10.209452)">
            <path d="M242.036,687.496C240.517,679.079 234.878,682.309 228.541,683.717C212.767,687.22 208.702,672.269 214.524,657.51C221.746,639.202 277.655,620.197 289.013,653.657C301.421,690.213 273.453,763.531 208.518,765.867C130.771,768.663 122.782,671.179 161.068,611.229C209.537,535.334 300.373,550.573 286.585,594.524C275.398,630.184 242.017,619.699 239.508,619.419C218.99,617.126 201.653,633.706 196.352,655.459C181.435,716.674 239.465,714.103 242.036,687.496Z" style="fill:rgb(144,59,63);"/>
        </g>
        <g transform="matrix(2,0,0,2,-1.247732,23.979049)">
            <path d="M438.938,482.47C439.177,470.27 439.087,470.317 441.746,455.547C462.295,341.396 462.536,340.812 466.395,331.455C475.999,308.169 504.438,306.764 510.541,308.342C531.453,313.749 515.742,344.283 513.976,358.561C512.555,370.047 520.404,365.754 524.103,361.151C547.993,331.429 550.936,280.941 585.545,291.365C654.044,311.997 549.176,376.448 553.87,399.428C557.239,415.92 591.784,424.292 595.735,435.425C602.285,453.883 558.384,504.55 533.726,480.271C523.158,469.865 517.523,422.144 504.848,431.962C488.337,444.75 521.66,489.815 474.591,501.807C437.92,511.15 438.978,482.825 438.938,482.47Z" style="fill:rgb(144,59,63);"/>
        </g>
        <g transform="matrix(2,0,0,2,56.336823,10.209452)">
            <path d="M457.955,667.535C456.329,681.075 458.083,684.834 435.305,707.313C423.861,718.607 399.303,728.748 392.34,700.544C388.874,686.501 390.317,667.115 373.724,674.949C362.187,680.396 362.887,702.404 351.031,717.118C338.308,732.908 325.055,745.397 309.487,744.709C291.01,743.892 297.332,720.81 297.935,718.608C304.72,693.836 304.414,693.855 312.617,669.542C319.959,647.781 317.75,644.391 321.674,636.588C333.531,613.008 332.817,612.774 340.829,587.605C353.904,546.53 367.503,534.109 403.498,531.453C433.834,529.214 434.943,558.594 448.587,603.472C457.18,631.735 458.879,648.465 457.955,667.535Z" style="fill:rgb(144,59,63);"/>
        </g>
        <g transform="matrix(2,0,0,2,-6.663177,10.209452)">
            <path d="M860.958,461.505C860.044,476.819 850.942,495.135 834.435,498.125C817.046,501.276 780.998,498.401 784.83,520.429C787.799,537.494 839.497,497.252 837.025,535.463C836.821,538.623 834.631,553.019 820.553,556.672C811.937,558.908 776.707,558.562 779.381,579.511C782.794,606.239 834.459,560.546 853.398,574.641C869.838,586.877 866.859,619.672 842.191,635.037C818.843,649.58 786.769,658.702 775.488,657.665C704.404,651.128 714.402,602.183 727.263,522.457C733.521,483.663 741.754,470.704 788.412,455.233C791.57,454.187 838.749,440.401 853.252,447.976C861.81,452.446 860.868,459.8 860.958,461.505Z" style="fill:rgb(144,59,63);"/>
        </g>
        <g transform="matrix(2,0,0,2,8.544779,23.979049)">
            <path d="M375.477,517.959C371.602,517.302 362.486,517.106 358.9,502.398C355.77,489.559 356.556,474.71 349.407,472.885C336.088,469.486 328.43,492.425 327.919,493.659C322.769,506.105 325.462,507.905 308.39,526.398C283.11,553.782 261.056,546.788 261.192,530.505C261.276,520.356 275.195,480.746 275.652,479.559C288.098,447.3 285.322,444.947 290.47,435.484C317.704,385.425 311.519,343.139 359.591,332.991C395.692,325.37 401.619,345.317 409.032,378.596C412.976,396.305 414.167,395.886 418.611,413.47C433.141,470.951 418.231,488.277 414.069,493.114C388.174,523.205 376.605,517.929 375.477,517.959Z" style="fill:rgb(144,59,63);"/>
        </g>
        <g transform="matrix(2,0,0,2,-13.781155,23.979049)">
            <path d="M710.038,315.485C710.127,314.021 710.698,304.618 713.451,297.48C719.079,282.885 766.36,252.588 775.683,289.459C782.136,314.98 758.345,396.655 756.701,401.57C729.275,483.545 609.135,486.992 615.333,384.49C618.425,333.358 620.016,328.173 621.455,323.484C633.395,284.572 672.57,288.984 679.297,292.869C694.566,301.687 685.139,317.976 679.321,359.472C674.863,391.277 688.29,394.247 693.313,391.162C710.866,380.384 709.365,340.748 710.038,315.485Z" style="fill:rgb(144,59,63);"/>
        </g>
        <g transform="matrix(2,0,0,2,12.073861,-12.790548)">
            <path d="M537.946,548.522C535.517,587.195 532.492,617.518 544.342,606.329C560.757,590.83 556.729,541.515 574.731,528.815C583.333,522.747 601.186,517.55 606.704,536.437C608.517,542.64 616.102,604.586 626.405,592.424C634.295,583.109 633.274,538.253 633.166,533.51C632.698,512.932 629.082,482.185 671.482,477.316C708.373,473.079 704.183,505.911 703.721,509.528C699.882,539.602 688.19,567.322 677.037,621.41C670.989,650.738 664.235,678.468 629.538,677.082C620.581,676.725 603.062,669.729 595.306,644.562C594.143,640.788 589.363,618.273 580.482,621.454C567.839,625.982 565.873,707.344 510.553,701.123C487.391,698.518 489.246,660.068 479.338,609.534C470.703,565.496 455.454,526.179 509.457,513.33C541.538,505.697 538.459,534.495 537.946,548.522Z" style="fill:rgb(253,234,220);"/>
        </g>
        <g transform="matrix(2,0,0,2,61.073861,-12.790548)">
            <path d="M242.036,687.496C240.517,679.079 234.878,682.309 228.541,683.717C212.767,687.22 208.702,672.269 214.524,657.51C221.746,639.202 277.655,620.197 289.013,653.657C301.421,690.213 273.453,763.531 208.518,765.867C130.771,768.663 122.782,671.179 161.068,611.229C209.537,535.334 300.373,550.573 286.585,594.524C275.398,630.184 242.017,619.699 239.508,619.419C218.99,617.126 201.653,633.706 196.352,655.459C181.435,716.674 239.465,714.103 242.036,687.496Z" style="fill:rgb(253,235,220);"/>
        </g>
        <g transform="matrix(2,0,0,2,-12.510695,0.979049)">
            <path d="M438.938,482.47C439.177,470.27 439.087,470.317 441.746,455.547C462.295,341.396 462.536,340.812 466.395,331.455C475.999,308.169 504.438,306.764 510.541,308.342C531.453,313.749 515.742,344.283 513.976,358.561C512.555,370.047 520.404,365.754 524.103,361.151C547.993,331.429 550.936,280.941 585.545,291.365C654.044,311.997 549.176,376.448 553.87,399.428C557.239,415.92 591.784,424.292 595.735,435.425C602.285,453.883 558.384,504.55 533.726,480.271C523.158,469.865 517.523,422.144 504.848,431.962C488.337,444.75 521.66,489.815 474.591,501.807C437.92,511.15 438.978,482.825 438.938,482.47Z" style="fill:rgb(253,234,220);"/>
        </g>
        <g transform="matrix(2,0,0,2,45.073861,-12.790548)">
            <path d="M457.955,667.535C456.329,681.075 458.083,684.834 435.305,707.313C423.861,718.607 399.303,728.748 392.34,700.544C388.874,686.501 390.317,667.115 373.724,674.949C362.187,680.396 362.887,702.404 351.031,717.118C338.308,732.908 325.055,745.397 309.487,744.709C291.01,743.892 297.332,720.81 297.935,718.608C304.72,693.836 304.414,693.855 312.617,669.542C319.959,647.781 317.75,644.391 321.674,636.588C333.531,613.008 332.817,612.774 340.829,587.605C353.904,546.53 367.503,534.109 403.498,531.453C433.834,529.214 434.943,558.594 448.587,603.472C457.18,631.735 458.879,648.465 457.955,667.535Z" style="fill:rgb(253,234,220);"/>
        </g>
        <g transform="matrix(2,0,0,2,-17.926139,-12.790548)">
            <path d="M860.958,461.505C860.044,476.819 850.942,495.135 834.435,498.125C817.046,501.276 780.998,498.401 784.83,520.429C787.799,537.494 839.497,497.252 837.025,535.463C836.821,538.623 834.631,553.019 820.553,556.672C811.937,558.908 776.707,558.562 779.381,579.511C782.794,606.239 834.459,560.546 853.398,574.641C869.838,586.877 866.859,619.672 842.191,635.037C818.843,649.58 786.769,658.702 775.488,657.665C704.404,651.128 714.402,602.183 727.263,522.457C733.521,483.663 741.754,470.704 788.412,455.233C791.57,454.187 838.749,440.401 853.252,447.976C861.81,452.446 860.868,459.8 860.958,461.505Z" style="fill:rgb(253,234,220);"/>
        </g>
        <g transform="matrix(2,0,0,2,-2.718183,0.979049)">
            <path d="M375.477,517.959C371.602,517.302 362.486,517.106 358.9,502.398C355.77,489.559 356.556,474.71 349.407,472.885C336.088,469.486 328.43,492.425 327.919,493.659C322.769,506.105 325.462,507.905 308.39,526.398C283.11,553.782 261.056,546.788 261.192,530.505C261.276,520.356 275.195,480.746 275.652,479.559C288.098,447.3 285.322,444.947 290.47,435.484C317.704,385.425 311.519,343.139 359.591,332.991C395.692,325.37 401.619,345.317 409.032,378.596C412.976,396.305 414.167,395.886 418.611,413.47C433.141,470.951 418.231,488.277 414.069,493.114C388.174,523.205 376.605,517.929 375.477,517.959Z" style="fill:rgb(253,234,220);"/>
        </g>
        <g transform="matrix(2,0,0,2,-25.044118,0.979049)">
            <path d="M710.038,315.485C710.127,314.021 710.698,304.618 713.451,297.48C719.079,282.885 766.36,252.588 775.683,289.459C782.136,314.98 758.345,396.655 756.701,401.57C729.275,483.545 609.135,486.992 615.333,384.49C618.425,333.358 620.016,328.173 621.455,323.484C633.395,284.572 672.57,288.984 679.297,292.869C694.566,301.687 685.139,317.976 679.321,359.472C674.863,391.277 688.29,394.247 693.313,391.162C710.866,380.384 709.365,340.748 710.038,315.485Z" style="fill:rgb(253,235,220);"/>
        </g>
    </g>
</svg>
